#!OML:ASF H:\ManfredETheater\Project 1\Capture day 1\Session 1\subject.ASF
:FULLY-SPECIFIED
:DEGREES
354
root 1.47064 15.7936 3.69463 -147.393 -7.24249 171.498
lowerback 16.4552 -3.61477 -5.38971
upperback -0.634575 -5.83602 1.02278
thorax -9.27409 -2.54041 5.54269
lowerneck -20.983 -3.04925 -4.33747
upperneck -4.12915 -1.99971 4.62902
head 2.41847 -0.247401 2.18305
rclavicle 1.6524e-014 -4.42296e-015
rhumerus -84.715 5.67998 -78.4746
rradius 74.5186
rwrist -17.7447
rhand -31.2053 13.2288
rfingers 7.12502
rthumb -4.48142 -16.7038
lclavicle 1.6524e-014 -4.42296e-015
lhumerus 10.9438 4.19591 78.2754
lradius 131.158
lwrist 24.9656
lhand -25.7298 -1.32996
lfingers 7.12502
lthumb 0.806685 28.6483
rfemur -79.4566 -10.9103 20.1143
rtibia 93.1978
rfoot -22.3072 -5.13715
rtoes -4.85555
lfemur -15.9963 -9.61015 -23.3848
ltibia 39.8284
lfoot -17.6192 -16.83
ltoes -18.8639
355
root 1.46964 15.8597 3.21768 -147.66 -7.00879 171.717
lowerback 16.4694 -3.79482 -5.17531
upperback -0.565114 -6.01499 1.20958
thorax -9.1831 -2.63835 5.66085
lowerneck -21.1191 -2.7628 -4.36785
upperneck -4.01819 -1.60979 4.24557
head 2.45522 -0.0753559 2.09306
rclavicle 6.76986e-014 3.90115e-015
rhumerus -87.2514 6.58698 -78.3709
rradius 76.5955
rwrist -18.1001
rhand -31.081 13.4335
rfingers 7.12502
rthumb -4.36139 -16.5016
lclavicle 6.76986e-014 3.90115e-015
lhumerus 12.6479 7.11886 76.0682
lradius 133.229
lwrist 26.8004
lhand -26.149 -0.978026
lfingers 7.12502
lthumb 0.401876 29.0013
rfemur -80.5669 -10.1928 19.8983
rtibia 91.0502
rfoot -22.5023 -4.88227
rtoes -6.52483
lfemur -13.2842 -9.93465 -23.1785
ltibia 36.957
lfoot -12.0002 -17.3821
ltoes -19.4238
356
root 1.46662 15.9276 2.73151 -147.994 -6.62804 171.96
lowerback 16.4991 -3.90868 -4.97452
upperback -0.46196 -6.11755 1.34199
thorax -9.07843 -2.70306 5.71043
lowerneck -21.2594 -2.53571 -4.44953
upperneck -3.9112 -1.28593 3.92122
head 2.498 0.067378 2.02755
rclavicle -6.27725e-015 -7.01803e-015
rhumerus -89.3913 7.19572 -78.1573
rradius 78.4645
rwrist -18.1367
rhand -30.9762 13.5959
rfingers 7.12502
rthumb -4.26013 -16.3413
lclavicle -6.27725e-015 -7.01803e-015
lhumerus 13.9454 9.82855 73.8415
lradius 134.869
lwrist 28.4731
lhand -26.3309 -0.747327
lfingers 7.12502
lthumb 0.226199 29.2323
rfemur -81.2699 -9.44169 19.6725
rtibia 88.7274
rfoot -22.5763 -4.49329
rtoes -8.30897
lfemur -10.7432 -10.3301 -23.0841
ltibia 34.291
lfoot -5.50905 -17.3149
ltoes -19.7514
357
root 1.46104 15.9958 2.23755 -148.378 -6.09381 172.197
lowerback 16.5487 -3.94116 -4.81448
upperback -0.335424 -6.12928 1.41453
thorax -8.97367 -2.72517 5.69891
lowerneck -21.3819 -2.38207 -4.59252
upperneck -3.81701 -1.04526 3.65837
head 2.53982 0.172315 1.98722
rclavicle -2.56246e-014 -4.12478e-015
rhumerus -91.0927 7.45868 -77.7719
rradius 80.107
rwrist -17.9235
rhand -30.9155 13.7766
rfingers 7.12502
rthumb -4.20151 -16.1618
lclavicle -2.56246e-014 -4.12478e-015
lhumerus 14.7866 12.0579 71.6339
lradius 136.073
lwrist 29.7582
lhand -26.2724 -0.558779
lfingers 7.12502
lthumb 0.282655 29.4208
rfemur -81.6075 -8.70286 19.4674
rtibia 86.3173
rfoot -22.4918 -4.00813
rtoes -9.98094
lfemur -8.4316 -10.8101 -23.156
ltibia 31.9244
lfoot 1.46001 -16.5124
ltoes -19.7745
358
root 1.45331 16.063 1.73845 -148.785 -5.42889 172.389
lowerback 16.6239 -3.88998 -4.7236
upperback -0.20225 -6.05184 1.4314
thorax -8.88647 -2.70238 5.64887
lowerneck -21.4533 -2.29702 -4.81406
upperneck -3.74537 -0.879609 3.46176
head 2.57053 0.243371 1.97699
rclavicle 2.23229e-014 1.12438e-014
rhumerus -92.3314 7.36007 -77.1922
rradius 81.551
rwrist -17.6391
rhand -30.888 13.8996
rfingers 7.12502
rthumb -4.175 -16.0393
lclavicle 2.23229e-014 1.12438e-014
lhumerus 15.1098 13.5439 69.4857
lradius 136.858
lwrist 30.4018
lhand -26.0417 -0.40715
lfingers 7.12502
lthumb 0.505444 29.572
rfemur -81.6401 -8.03497 19.3239
rtibia 83.9218
rfoot -22.2318 -3.51043
rtoes -11.4132
lfemur -6.44509 -11.3806 -23.425
ltibia 30.0275
lfoot 8.42466 -15.2097
ltoes -19.1594
359
root 1.44329 16.1279 1.23667 -149.186 -4.66002 172.499
lowerback 16.7182 -3.75897 -4.72322
upperback -0.0742528 -5.89303 1.39741
thorax -8.82215 -2.63665 5.57913
lowerneck -21.8952 -2.28421 -5.06667
upperneck -3.12588 -0.78282 3.42741
head 2.46389 0.293608 1.8307
rclavicle 8.02096e-014 -7.29912e-015
rhumerus -93.0984 6.90917 -76.4393
rradius 82.8407
rwrist -17.4961
rhand -30.8967 13.9846
rfingers 7.12502
rthumb -4.18343 -15.9541
lclavicle 8.02096e-014 -7.29912e-015
lhumerus 14.864 14.0933 67.4616
lradius 137.268
lwrist 30.2519
lhand -25.6819 -0.304984
lfingers 7.12502
lthumb 0.852969 29.6731
rfemur -81.4263 -7.49702 19.2608
rtibia 81.6378
rfoot -21.8026 -3.0503
rtoes -12.5047
lfemur -4.85795 -11.9913 -23.9104
ltibia 28.7597
lfoot 14.8903 -13.8546
ltoes -17.4993
